G75*
%MOIN*%
%OFA0B0*%
%FSLAX25Y25*%
%IPPOS*%
%LPD*%
%AMOC8*
5,1,8,0,0,1.08239X$1,22.5*
%
%ADD10R,0.11750X0.11750*%
%ADD11C,0.08200*%
%ADD12C,0.03778*%
D10*
X0015000Y0171000D03*
X0067000Y0171000D03*
D11*
X0081000Y0026000D03*
X0096000Y0036000D03*
X0096000Y0046000D03*
X0111000Y0056000D03*
X0096000Y0066000D03*
X0096000Y0076000D03*
X0111000Y0086000D03*
X0096000Y0096000D03*
X0096000Y0106000D03*
X0111000Y0116000D03*
X0096000Y0126000D03*
X0096000Y0136000D03*
X0081000Y0116000D03*
X0081000Y0086000D03*
X0081000Y0056000D03*
X0111000Y0026000D03*
X0156000Y0026000D03*
X0171000Y0036000D03*
X0171000Y0046000D03*
X0156000Y0056000D03*
X0171000Y0066000D03*
X0171000Y0076000D03*
X0156000Y0086000D03*
X0171000Y0096000D03*
X0171000Y0106000D03*
X0156000Y0116000D03*
X0171000Y0126000D03*
X0171000Y0136000D03*
X0156000Y0146000D03*
X0171000Y0156000D03*
X0171000Y0166000D03*
X0156000Y0176000D03*
X0171000Y0186000D03*
X0171000Y0196000D03*
X0186000Y0176000D03*
X0186000Y0146000D03*
X0186000Y0116000D03*
X0186000Y0086000D03*
X0218200Y0074900D03*
X0218200Y0057100D03*
X0218200Y0044900D03*
X0218200Y0027100D03*
X0243800Y0027100D03*
X0243800Y0044900D03*
X0243800Y0057100D03*
X0243800Y0074900D03*
X0186000Y0056000D03*
X0186000Y0026000D03*
D12*
X0091800Y0088200D03*
X0057600Y0084000D03*
X0051600Y0070200D03*
X0058200Y0067200D03*
X0031800Y0088800D03*
X0051600Y0098400D03*
X0054000Y0115800D03*
X0088200Y0148200D03*
X0086400Y0153600D03*
X0099600Y0148800D03*
X0077400Y0164400D03*
X0163800Y0102000D03*
M02*
