G75*
%MOIN*%
%OFA0B0*%
%FSLAX25Y25*%
%IPPOS*%
%LPD*%
%AMOC8*
5,1,8,0,0,1.08239X$1,22.5*
%
%ADD10R,0.11750X0.11750*%
%ADD11C,0.36233*%
%ADD12C,0.08200*%
%ADD13R,0.06312X0.04343*%
%ADD14R,0.04343X0.06312*%
%ADD15R,0.24422X0.24422*%
%ADD16R,0.05524X0.03162*%
%ADD17C,0.03778*%
D10*
X0015000Y0171000D03*
X0067000Y0171000D03*
D11*
X0041000Y0171000D03*
D12*
X0081000Y0026000D03*
X0096000Y0036000D03*
X0096000Y0046000D03*
X0111000Y0056000D03*
X0096000Y0066000D03*
X0096000Y0076000D03*
X0111000Y0086000D03*
X0096000Y0096000D03*
X0096000Y0106000D03*
X0111000Y0116000D03*
X0096000Y0126000D03*
X0096000Y0136000D03*
X0081000Y0116000D03*
X0081000Y0086000D03*
X0081000Y0056000D03*
X0111000Y0026000D03*
X0156000Y0026000D03*
X0171000Y0036000D03*
X0171000Y0046000D03*
X0156000Y0056000D03*
X0171000Y0066000D03*
X0171000Y0076000D03*
X0156000Y0086000D03*
X0171000Y0096000D03*
X0171000Y0106000D03*
X0156000Y0116000D03*
X0171000Y0126000D03*
X0171000Y0136000D03*
X0156000Y0146000D03*
X0171000Y0156000D03*
X0171000Y0166000D03*
X0156000Y0176000D03*
X0171000Y0186000D03*
X0171000Y0196000D03*
X0186000Y0176000D03*
X0186000Y0146000D03*
X0186000Y0116000D03*
X0186000Y0086000D03*
X0218200Y0074900D03*
X0218200Y0057100D03*
X0218200Y0044900D03*
X0218200Y0027100D03*
X0243800Y0027100D03*
X0243800Y0044900D03*
X0243800Y0057100D03*
X0243800Y0074900D03*
X0186000Y0056000D03*
X0186000Y0026000D03*
D13*
X0194701Y0104701D03*
X0194701Y0109701D03*
X0194701Y0114701D03*
X0194701Y0119701D03*
X0194701Y0124701D03*
X0194701Y0129701D03*
X0194701Y0134701D03*
X0194701Y0139701D03*
X0194701Y0144701D03*
X0194701Y0149701D03*
X0194701Y0154701D03*
X0194701Y0159701D03*
X0194701Y0164701D03*
X0194701Y0169701D03*
X0268323Y0169701D03*
X0268323Y0164701D03*
X0268323Y0159701D03*
X0268323Y0154701D03*
X0268323Y0149701D03*
X0268323Y0144701D03*
X0268323Y0139701D03*
X0268323Y0134701D03*
X0268323Y0129701D03*
X0268323Y0124701D03*
X0268323Y0119701D03*
X0268323Y0114701D03*
X0268323Y0109701D03*
X0268323Y0104701D03*
D14*
X0254031Y0097614D03*
X0249031Y0097614D03*
X0244031Y0097614D03*
X0239031Y0097614D03*
X0234031Y0097614D03*
X0229031Y0097614D03*
X0224031Y0097614D03*
X0219031Y0097614D03*
X0214031Y0097614D03*
X0209031Y0097614D03*
D15*
X0232024Y0139425D03*
D16*
X0117024Y0148500D03*
X0117024Y0153500D03*
X0117024Y0158500D03*
X0117024Y0163500D03*
X0117024Y0168500D03*
X0117024Y0173500D03*
X0117024Y0178500D03*
X0117024Y0183500D03*
X0094976Y0183500D03*
X0094976Y0178500D03*
X0094976Y0173500D03*
X0094976Y0168500D03*
X0094976Y0163500D03*
X0094976Y0158500D03*
X0094976Y0153500D03*
X0094976Y0148500D03*
X0047024Y0103500D03*
X0047024Y0098500D03*
X0047024Y0093500D03*
X0047024Y0088500D03*
X0047024Y0083500D03*
X0047024Y0078500D03*
X0047024Y0073500D03*
X0047024Y0068500D03*
X0024976Y0068500D03*
X0024976Y0073500D03*
X0024976Y0078500D03*
X0024976Y0083500D03*
X0024976Y0088500D03*
X0024976Y0093500D03*
X0024976Y0098500D03*
X0024976Y0103500D03*
D17*
X0031800Y0088800D03*
X0051600Y0098400D03*
X0057600Y0084000D03*
X0051600Y0070200D03*
X0058200Y0067200D03*
X0091800Y0088200D03*
X0054000Y0115800D03*
X0088200Y0148200D03*
X0086400Y0153600D03*
X0099600Y0148800D03*
X0077400Y0164400D03*
X0163800Y0102000D03*
M02*
