G75*
%MOIN*%
%OFA0B0*%
%FSLAX25Y25*%
%IPPOS*%
%LPD*%
%AMOC8*
5,1,8,0,0,1.08239X$1,22.5*
%
%ADD10R,0.10950X0.10950*%
%ADD11C,0.35433*%
%ADD12C,0.07400*%
%ADD13R,0.05512X0.03543*%
%ADD14R,0.03543X0.05512*%
%ADD15R,0.23622X0.23622*%
%ADD16R,0.04724X0.02362*%
%ADD17C,0.01000*%
%ADD18C,0.00600*%
%ADD19C,0.02978*%
D10*
X0015000Y0171000D03*
X0067000Y0171000D03*
D11*
X0041000Y0171000D03*
D12*
X0096000Y0136000D03*
X0096000Y0126000D03*
X0111000Y0116000D03*
X0096000Y0106000D03*
X0096000Y0096000D03*
X0111000Y0086000D03*
X0096000Y0076000D03*
X0096000Y0066000D03*
X0111000Y0056000D03*
X0096000Y0046000D03*
X0096000Y0036000D03*
X0111000Y0026000D03*
X0081000Y0026000D03*
X0081000Y0056000D03*
X0081000Y0086000D03*
X0081000Y0116000D03*
X0156000Y0116000D03*
X0171000Y0106000D03*
X0171000Y0096000D03*
X0156000Y0086000D03*
X0171000Y0076000D03*
X0171000Y0066000D03*
X0156000Y0056000D03*
X0171000Y0046000D03*
X0171000Y0036000D03*
X0156000Y0026000D03*
X0186000Y0026000D03*
X0218200Y0027100D03*
X0218200Y0044900D03*
X0218200Y0057100D03*
X0218200Y0074900D03*
X0243800Y0074900D03*
X0243800Y0057100D03*
X0243800Y0044900D03*
X0243800Y0027100D03*
X0186000Y0056000D03*
X0186000Y0086000D03*
X0186000Y0116000D03*
X0171000Y0126000D03*
X0171000Y0136000D03*
X0156000Y0146000D03*
X0171000Y0156000D03*
X0171000Y0166000D03*
X0156000Y0176000D03*
X0171000Y0186000D03*
X0171000Y0196000D03*
X0186000Y0176000D03*
X0186000Y0146000D03*
D13*
X0194701Y0144701D03*
X0194701Y0139701D03*
X0194701Y0134701D03*
X0194701Y0129701D03*
X0194701Y0124701D03*
X0194701Y0119701D03*
X0194701Y0114701D03*
X0194701Y0109701D03*
X0194701Y0104701D03*
X0194701Y0149701D03*
X0194701Y0154701D03*
X0194701Y0159701D03*
X0194701Y0164701D03*
X0194701Y0169701D03*
X0268323Y0169701D03*
X0268323Y0164701D03*
X0268323Y0159701D03*
X0268323Y0154701D03*
X0268323Y0149701D03*
X0268323Y0144701D03*
X0268323Y0139701D03*
X0268323Y0134701D03*
X0268323Y0129701D03*
X0268323Y0124701D03*
X0268323Y0119701D03*
X0268323Y0114701D03*
X0268323Y0109701D03*
X0268323Y0104701D03*
D14*
X0254031Y0097614D03*
X0249031Y0097614D03*
X0244031Y0097614D03*
X0239031Y0097614D03*
X0234031Y0097614D03*
X0229031Y0097614D03*
X0224031Y0097614D03*
X0219031Y0097614D03*
X0214031Y0097614D03*
X0209031Y0097614D03*
D15*
X0232024Y0139425D03*
D16*
X0117024Y0148500D03*
X0117024Y0153500D03*
X0117024Y0158500D03*
X0117024Y0163500D03*
X0117024Y0168500D03*
X0117024Y0173500D03*
X0117024Y0178500D03*
X0117024Y0183500D03*
X0094976Y0183500D03*
X0094976Y0178500D03*
X0094976Y0173500D03*
X0094976Y0168500D03*
X0094976Y0163500D03*
X0094976Y0158500D03*
X0094976Y0153500D03*
X0094976Y0148500D03*
X0047024Y0103500D03*
X0047024Y0098500D03*
X0047024Y0093500D03*
X0047024Y0088500D03*
X0047024Y0083500D03*
X0047024Y0078500D03*
X0047024Y0073500D03*
X0047024Y0068500D03*
X0024976Y0068500D03*
X0024976Y0073500D03*
X0024976Y0078500D03*
X0024976Y0083500D03*
X0024976Y0088500D03*
X0024976Y0093500D03*
X0024976Y0098500D03*
X0024976Y0103500D03*
D17*
X0024976Y0154976D01*
X0041000Y0171000D01*
X0043561Y0105137D02*
X0043561Y0103561D01*
X0024976Y0083500D02*
X0027476Y0081000D01*
X0024976Y0078500D02*
X0027695Y0075781D01*
X0027794Y0075781D01*
X0030039Y0073537D01*
X0030039Y0063561D01*
X0036000Y0057600D01*
X0052600Y0057600D01*
X0081000Y0086000D01*
X0081000Y0056000D02*
X0031000Y0056000D01*
X0028439Y0058561D01*
X0028439Y0070137D01*
X0027794Y0070781D01*
X0027695Y0070781D01*
X0024976Y0073500D01*
X0024976Y0068500D02*
X0022476Y0066000D01*
X0021000Y0066000D01*
X0021000Y0036000D01*
X0031000Y0026000D01*
X0081000Y0026000D01*
D18*
X0033600Y0021000D02*
X0151200Y0021000D01*
X0156000Y0025800D01*
X0156000Y0026000D01*
X0161400Y0049800D02*
X0130200Y0049800D01*
X0091800Y0088200D01*
X0093000Y0090600D02*
X0132600Y0051000D01*
X0157800Y0051000D01*
X0166200Y0059400D01*
X0166200Y0082200D01*
X0166800Y0082800D01*
X0108600Y0141000D01*
X0091800Y0141000D01*
X0082800Y0150000D01*
X0082800Y0155400D01*
X0090600Y0163200D01*
X0094800Y0163200D01*
X0094976Y0163500D01*
X0097800Y0161400D02*
X0090600Y0161400D01*
X0084000Y0154800D01*
X0084000Y0152400D01*
X0088200Y0148200D01*
X0086400Y0153600D02*
X0094800Y0153600D01*
X0094976Y0153500D01*
X0094976Y0158500D02*
X0095400Y0159000D01*
X0097200Y0159000D01*
X0099600Y0161400D01*
X0099600Y0174000D01*
X0111600Y0186000D01*
X0157800Y0186000D01*
X0175800Y0168000D01*
X0175800Y0167400D01*
X0193200Y0150000D01*
X0194400Y0150000D01*
X0194701Y0149701D01*
X0195000Y0169200D02*
X0194701Y0169701D01*
X0194400Y0169800D01*
X0176400Y0169800D01*
X0159000Y0187200D01*
X0111000Y0187200D01*
X0105000Y0181200D01*
X0092400Y0181200D01*
X0077400Y0166200D01*
X0077400Y0164400D01*
X0048000Y0164400D01*
X0041400Y0171000D01*
X0041000Y0171000D01*
X0067000Y0171000D02*
X0067200Y0171000D01*
X0079200Y0183000D01*
X0094800Y0183000D01*
X0094976Y0183500D01*
X0095400Y0183600D01*
X0100200Y0188400D01*
X0159600Y0188400D01*
X0166800Y0181200D01*
X0262800Y0181200D01*
X0272400Y0171600D01*
X0272400Y0167400D01*
X0270000Y0165000D01*
X0268800Y0165000D01*
X0268323Y0164701D01*
X0265994Y0162372D01*
X0265194Y0162372D01*
X0264667Y0161845D01*
X0267000Y0169200D02*
X0234600Y0136800D01*
X0232024Y0139425D01*
X0231600Y0139800D01*
X0202200Y0169200D01*
X0195000Y0169200D01*
X0156000Y0175800D02*
X0156000Y0176000D01*
X0156000Y0175800D02*
X0154200Y0174000D01*
X0117600Y0174000D01*
X0117024Y0173500D01*
X0114600Y0175800D02*
X0114000Y0175800D01*
X0113400Y0175200D01*
X0113400Y0172200D01*
X0114600Y0171000D01*
X0131400Y0171000D01*
X0156000Y0146400D01*
X0156000Y0146000D01*
X0182400Y0124200D02*
X0194400Y0124200D01*
X0194701Y0124701D01*
X0182400Y0124200D02*
X0163800Y0105600D01*
X0163800Y0102000D01*
X0156000Y0116000D02*
X0156000Y0119400D01*
X0119400Y0156000D01*
X0114600Y0156000D01*
X0112200Y0158400D01*
X0112200Y0178800D01*
X0114000Y0180600D01*
X0114600Y0180600D01*
X0117000Y0183000D01*
X0117024Y0183500D01*
X0117024Y0178500D02*
X0117000Y0178200D01*
X0114600Y0175800D01*
X0099600Y0174000D02*
X0097800Y0175800D01*
X0092400Y0175800D01*
X0079800Y0163200D01*
X0079800Y0153000D01*
X0028200Y0101400D01*
X0022800Y0101400D01*
X0021600Y0100200D01*
X0021600Y0091800D01*
X0022200Y0091200D01*
X0036600Y0091200D01*
X0038400Y0093000D01*
X0046800Y0093000D01*
X0047024Y0093500D01*
X0047400Y0088800D02*
X0047024Y0088500D01*
X0047400Y0088800D02*
X0076800Y0088800D01*
X0078600Y0090600D01*
X0093000Y0090600D01*
X0089400Y0096000D02*
X0129000Y0056400D01*
X0156000Y0056400D01*
X0156000Y0056000D01*
X0161400Y0049800D02*
X0208800Y0097200D01*
X0209031Y0097614D01*
X0194400Y0109200D02*
X0194701Y0109701D01*
X0194400Y0109200D02*
X0193200Y0109200D01*
X0166800Y0082800D01*
X0156000Y0086000D02*
X0156000Y0086400D01*
X0141600Y0100800D01*
X0044400Y0100800D01*
X0042600Y0099000D01*
X0025200Y0099000D01*
X0024976Y0098500D01*
X0025200Y0093600D02*
X0024976Y0093500D01*
X0025200Y0093600D02*
X0037200Y0093600D01*
X0039600Y0096000D01*
X0089400Y0096000D01*
X0057600Y0084000D02*
X0047400Y0084000D01*
X0047024Y0083500D01*
X0047024Y0078500D02*
X0047400Y0078000D01*
X0058200Y0067200D01*
X0051600Y0070200D02*
X0050400Y0069000D01*
X0047400Y0069000D01*
X0047024Y0068500D01*
X0031800Y0088800D02*
X0025800Y0082800D01*
X0024976Y0083500D01*
X0024600Y0088200D02*
X0024976Y0088500D01*
X0024600Y0088200D02*
X0019200Y0082800D01*
X0019200Y0035400D01*
X0033600Y0021000D01*
X0047400Y0098400D02*
X0047024Y0098500D01*
X0047400Y0098400D02*
X0051600Y0098400D01*
X0047400Y0103800D02*
X0047024Y0103500D01*
X0047400Y0103800D02*
X0047400Y0105600D01*
X0081000Y0139200D01*
X0081000Y0162600D01*
X0091800Y0173400D01*
X0094800Y0173400D01*
X0094976Y0173500D01*
X0094976Y0168500D02*
X0095400Y0168000D01*
X0098400Y0165000D01*
X0098400Y0162000D01*
X0097800Y0161400D01*
X0099600Y0148800D02*
X0117000Y0148800D01*
X0117024Y0148500D01*
X0054000Y0115800D02*
X0043800Y0105600D01*
X0043561Y0105137D01*
X0232024Y0139425D02*
X0232200Y0139200D01*
X0234600Y0136800D01*
X0253800Y0117600D01*
X0253800Y0097800D01*
X0254031Y0097614D01*
X0249031Y0097614D02*
X0246703Y0095286D01*
X0246703Y0094485D01*
X0267000Y0169200D02*
X0268200Y0169200D01*
X0268323Y0169701D01*
D19*
X0163800Y0102000D03*
X0099600Y0148800D03*
X0088200Y0148200D03*
X0086400Y0153600D03*
X0077400Y0164400D03*
X0054000Y0115800D03*
X0051600Y0098400D03*
X0057600Y0084000D03*
X0051600Y0070200D03*
X0058200Y0067200D03*
X0031800Y0088800D03*
X0091800Y0088200D03*
M02*
