%
M48
M72
T01C0.01378
T02C0.03200
T03C0.03543
T04C0.04000
T05C0.07300
%
T01
X58200Y67200
X51600Y70200
X57600Y84000
X51600Y98400
X31800Y88800
X54000Y115800
X91800Y88200
X163800Y102000
X99600Y148800
X88200Y148200
X86400Y153600
X77400Y164400
T02
X96000Y136000
X96000Y126000
X96000Y106000
X96000Y96000
X96000Y76000
X96000Y66000
X96000Y46000
X96000Y36000
X171000Y36000
X171000Y46000
X171000Y66000
X171000Y76000
X171000Y96000
X171000Y106000
X171000Y126000
X171000Y136000
X171000Y156000
X171000Y166000
X171000Y186000
X171000Y196000
T03
X81000Y26000
X111000Y26000
X111000Y56000
X81000Y56000
X81000Y86000
X111000Y86000
X111000Y116000
X81000Y116000
X156000Y116000
X186000Y116000
X186000Y146000
X156000Y146000
X156000Y176000
X186000Y176000
X186000Y86000
X156000Y86000
X156000Y56000
X186000Y56000
X186000Y26000
X156000Y26000
T04
X218200Y27100
X218200Y44900
X218200Y57100
X218200Y74900
X243800Y74900
X243800Y57100
X243800Y44900
X243800Y27100
T05
X67000Y171000
X15000Y171000
M30
