G75*
%MOIN*%
%OFA0B0*%
%FSLAX25Y25*%
%IPPOS*%
%LPD*%
%AMOC8*
5,1,8,0,0,1.08239X$1,22.5*
%
%ADD10R,0.10950X0.10950*%
%ADD11C,0.07400*%
%ADD12C,0.00600*%
%ADD13C,0.02978*%
%ADD14C,0.01000*%
D10*
X0015000Y0171000D03*
X0067000Y0171000D03*
D11*
X0081000Y0026000D03*
X0096000Y0036000D03*
X0096000Y0046000D03*
X0111000Y0056000D03*
X0096000Y0066000D03*
X0096000Y0076000D03*
X0111000Y0086000D03*
X0096000Y0096000D03*
X0096000Y0106000D03*
X0111000Y0116000D03*
X0096000Y0126000D03*
X0096000Y0136000D03*
X0081000Y0116000D03*
X0081000Y0086000D03*
X0081000Y0056000D03*
X0111000Y0026000D03*
X0156000Y0026000D03*
X0171000Y0036000D03*
X0171000Y0046000D03*
X0156000Y0056000D03*
X0171000Y0066000D03*
X0171000Y0076000D03*
X0156000Y0086000D03*
X0171000Y0096000D03*
X0171000Y0106000D03*
X0156000Y0116000D03*
X0171000Y0126000D03*
X0171000Y0136000D03*
X0156000Y0146000D03*
X0171000Y0156000D03*
X0171000Y0166000D03*
X0156000Y0176000D03*
X0171000Y0186000D03*
X0171000Y0196000D03*
X0186000Y0176000D03*
X0186000Y0146000D03*
X0186000Y0116000D03*
X0186000Y0086000D03*
X0218200Y0074900D03*
X0218200Y0057100D03*
X0218200Y0044900D03*
X0218200Y0027100D03*
X0243800Y0027100D03*
X0243800Y0044900D03*
X0243800Y0057100D03*
X0243800Y0074900D03*
X0186000Y0056000D03*
X0186000Y0026000D03*
D12*
X0171000Y0046000D02*
X0171000Y0066000D01*
X0166200Y0070800D01*
X0166200Y0078000D01*
X0171000Y0082800D01*
X0171000Y0096000D01*
X0166200Y0100800D01*
X0166200Y0108000D01*
X0112200Y0108000D01*
X0107400Y0112800D01*
X0096000Y0112800D01*
X0091200Y0108000D01*
X0091200Y0100800D01*
X0096000Y0096000D01*
X0096000Y0082800D01*
X0091200Y0078000D01*
X0091200Y0070800D01*
X0096000Y0066000D01*
X0096000Y0046000D01*
X0103200Y0041400D02*
X0163800Y0102000D01*
X0166200Y0108000D02*
X0171000Y0112800D01*
X0171000Y0126000D01*
X0166200Y0130800D01*
X0166200Y0138000D01*
X0171000Y0142800D01*
X0171000Y0156000D01*
X0166200Y0160800D01*
X0166200Y0168000D01*
X0171000Y0172800D01*
X0171000Y0186000D01*
X0099600Y0148800D02*
X0094800Y0148800D01*
X0079200Y0164400D01*
X0077400Y0164400D01*
X0067200Y0171000D02*
X0067000Y0171000D01*
X0067200Y0171000D02*
X0084600Y0153600D01*
X0085800Y0153600D01*
X0086400Y0153600D01*
X0085800Y0153600D02*
X0085800Y0114000D01*
X0070200Y0098400D01*
X0051600Y0098400D01*
X0051600Y0070200D01*
X0058200Y0067200D02*
X0063000Y0067200D01*
X0088800Y0041400D01*
X0103200Y0041400D01*
X0057600Y0084000D02*
X0076800Y0103200D01*
X0091800Y0088200D01*
X0076800Y0103200D02*
X0088200Y0114600D01*
X0088200Y0148200D01*
X0096000Y0126000D02*
X0096000Y0112800D01*
X0081000Y0115800D02*
X0081000Y0116000D01*
X0081000Y0115800D02*
X0054000Y0115800D01*
X0031800Y0093600D01*
X0031800Y0088800D01*
D13*
X0031800Y0088800D03*
X0051600Y0098400D03*
X0057600Y0084000D03*
X0051600Y0070200D03*
X0058200Y0067200D03*
X0091800Y0088200D03*
X0054000Y0115800D03*
X0088200Y0148200D03*
X0086400Y0153600D03*
X0099600Y0148800D03*
X0077400Y0164400D03*
X0163800Y0102000D03*
D14*
X0171000Y0106000D02*
X0186000Y0091000D01*
X0186000Y0086000D01*
X0171000Y0076000D02*
X0186000Y0061000D01*
X0186000Y0056000D01*
X0181000Y0036000D02*
X0171000Y0036000D01*
X0181000Y0036000D02*
X0186000Y0031000D01*
X0186000Y0026000D01*
X0111000Y0026000D02*
X0111000Y0031000D01*
X0096000Y0036000D01*
X0111000Y0056000D02*
X0111000Y0061000D01*
X0096000Y0076000D01*
X0111000Y0086000D02*
X0111000Y0091000D01*
X0096000Y0106000D01*
X0111000Y0116000D02*
X0111000Y0121000D01*
X0096000Y0136000D01*
X0171000Y0136000D02*
X0186000Y0121000D01*
X0186000Y0116000D01*
X0186000Y0146000D02*
X0186000Y0151000D01*
X0171000Y0166000D01*
X0186000Y0176000D02*
X0186000Y0181000D01*
X0171000Y0196000D01*
M02*
